<svg width="436" height="58" viewBox="0 0 436 58" fill="none" xmlns="http://www.w3.org/2000/svg">
<path d="M0.86 0.299996H33.26C38.552 0.299996 42.44 1.515 44.924 3.945C47.408 6.321 48.65 9.966 48.65 14.88C48.65 18.12 47.948 20.766 46.544 22.818C45.14 24.816 43.412 26.22 41.36 27.03C45.734 28.218 48.704 31.134 50.27 35.778C50.81 37.452 51.08 39.396 51.08 41.61C51.08 46.902 49.838 50.79 47.354 53.274C44.87 55.758 40.982 57 35.69 57H0.86V0.299996ZM36.5 39.18C36.5 35.94 34.88 34.32 31.64 34.32H15.44V45.66H31.64C34.88 45.66 36.5 44.04 36.5 40.8V39.18ZM34.07 16.5C34.07 13.26 32.45 11.64 29.21 11.64H15.44V22.98H29.21C32.45 22.98 34.07 21.36 34.07 18.12V16.5ZM82.2618 25.815C78.8598 25.815 75.3498 26.625 71.7318 28.245V57H57.5568V14.07H70.1118L70.9218 19.335C75.5658 15.285 80.4258 13.26 85.5018 13.26H89.1468V25.815H82.2618ZM114.659 46.065C117.521 46.065 120.761 45.525 124.379 44.445V14.07H138.554V57H125.999L125.189 52.95C122.651 54.624 120.032 55.866 117.332 56.676C114.686 57.432 112.445 57.81 110.609 57.81H106.964C103.292 57.81 100.349 56.703 98.1347 54.489C95.9207 52.275 94.8137 49.332 94.8137 45.66V14.07H108.989V43.23C108.989 44.04 109.259 44.715 109.799 45.255C110.339 45.795 111.014 46.065 111.824 46.065H114.659ZM160.8 14.88C166.038 13.8 170.628 13.26 174.57 13.26H178.215C181.887 13.26 184.83 14.367 187.044 16.581C189.258 18.795 190.365 21.738 190.365 25.41V57H176.19V27.03C176.19 26.22 175.92 25.545 175.38 25.005C174.84 24.465 174.165 24.195 173.355 24.195H170.52C168.468 24.195 166.578 24.303 164.85 24.519C163.176 24.735 161.826 24.897 160.8 25.005V57H146.625V0.299996H160.8V14.88ZM242.196 56.19C230.154 57.27 220.164 57.81 212.226 57.81C206.934 57.81 203.046 56.568 200.562 54.084C198.078 51.6 196.836 47.712 196.836 42.42V16.5C196.836 10.83 198.105 6.726 200.643 4.188C203.235 1.596 207.366 0.299996 213.036 0.299996H242.196V11.64H216.276C213.036 11.64 211.416 13.26 211.416 16.5V42.42C211.416 43.662 211.767 44.661 212.469 45.417C213.225 46.119 214.17 46.47 215.304 46.47C216.438 46.47 217.68 46.47 219.03 46.47C220.38 46.416 221.784 46.362 223.242 46.308C224.7 46.254 226.158 46.2 227.616 46.146C229.128 46.092 231.045 45.984 233.367 45.822C235.743 45.66 238.686 45.471 242.196 45.255V56.19ZM262.05 14.88C267.288 13.8 271.878 13.26 275.82 13.26H279.465C283.137 13.26 286.08 14.367 288.294 16.581C290.508 18.795 291.615 21.738 291.615 25.41V57H277.44V27.03C277.44 26.22 277.17 25.545 276.63 25.005C276.09 24.465 275.415 24.195 274.605 24.195H271.77C269.718 24.195 267.828 24.303 266.1 24.519C264.426 24.735 263.076 24.897 262.05 25.005V57H247.875V0.299996H262.05V14.88ZM315.501 23.385C313.341 23.385 312.261 24.465 312.261 26.625V31.08H326.031V26.625C326.031 24.465 324.951 23.385 322.791 23.385H315.501ZM338.586 56.19C328.164 57.27 318.714 57.81 310.236 57.81C306.564 57.81 303.621 56.703 301.407 54.489C299.193 52.275 298.086 49.332 298.086 45.66V26.22C298.086 22.17 299.22 19.011 301.488 16.743C303.81 14.421 306.996 13.26 311.046 13.26H327.246C331.296 13.26 334.455 14.421 336.723 16.743C339.045 19.011 340.206 22.17 340.206 26.22V41.205H312.261V44.445C312.261 45.255 312.531 45.93 313.071 46.47C313.611 47.01 314.286 47.28 315.096 47.28C320.442 47.28 328.272 46.875 338.586 46.065V56.19ZM345.844 45.66C356.806 46.47 365.446 46.875 371.764 46.875C372.574 46.875 373.249 46.605 373.789 46.065C374.329 45.525 374.599 44.85 374.599 44.04V41.205H357.184C353.512 41.205 350.569 40.098 348.355 37.884C346.141 35.67 345.034 32.727 345.034 29.055V26.22C345.034 22.548 346.141 19.605 348.355 17.391C350.569 15.177 353.512 14.07 357.184 14.07H384.724V24.6H362.044C361.234 24.6 360.559 24.87 360.019 25.41C359.479 25.95 359.209 26.625 359.209 27.435C359.209 28.245 359.479 28.92 360.019 29.46C360.559 30 361.234 30.27 362.044 30.27H376.624C380.296 30.27 383.239 31.377 385.453 33.591C387.667 35.805 388.774 38.748 388.774 42.42V45.66C388.774 49.332 387.667 52.275 385.453 54.489C383.239 56.703 380.296 57.81 376.624 57.81C367.066 57.81 356.806 57.27 345.844 56.19V45.66ZM392.83 45.66C403.792 46.47 412.432 46.875 418.75 46.875C419.56 46.875 420.235 46.605 420.775 46.065C421.315 45.525 421.585 44.85 421.585 44.04V41.205H404.17C400.498 41.205 397.555 40.098 395.341 37.884C393.127 35.67 392.02 32.727 392.02 29.055V26.22C392.02 22.548 393.127 19.605 395.341 17.391C397.555 15.177 400.498 14.07 404.17 14.07H431.71V24.6H409.03C408.22 24.6 407.545 24.87 407.005 25.41C406.465 25.95 406.195 26.625 406.195 27.435C406.195 28.245 406.465 28.92 407.005 29.46C407.545 30 408.22 30.27 409.03 30.27H423.61C427.282 30.27 430.225 31.377 432.439 33.591C434.653 35.805 435.76 38.748 435.76 42.42V45.66C435.76 49.332 434.653 52.275 432.439 54.489C430.225 56.703 427.282 57.81 423.61 57.81C414.052 57.81 403.792 57.27 392.83 56.19V45.66Z" fill="#E4E9EF"/>
</svg>
